# xmcd
#
# Track frame offsets:
#	150
#	14397
#	35256
#	52674
#	72805
#	91885
#	110013
#	130647
#	145831
#	157194
#	172929
#	190321
#	214124
#	239237
#
# Disc length: 3384 seconds
#
# Revision: 1
# Processed by: cddbd v1.5.2PL0 Copyright (c) Steve Scherf et al.
# Submitted via: audiograbber 1.83.01
#
DISCID=be0d360e
DTITLE=Silver Mountain - Breakin`Chains
DYEAR=2002
DGENRE=Metal
TTITLE0=Prophet of Doom 
TTITLE1=Before the Storm 
TTITLE2=Felo De Se 
TTITLE3=Man of No Present Existence 
TTITLE4=Scarlet Pimpernel 
TTITLE5=Maniac 
TTITLE6=Axeman and the Virgin 
TTITLE7=Breakin' Chains 
TTITLE8=Rider of the Night 
TTITLE9=A.S.W.A.S.T 
TTITLE10=The Butterfly 
TTITLE11=Dance Around the Fire 
TTITLE12=Millattack 
TTITLE13=Daten-CD
EXTD=
EXTT0=
EXTT1=
EXTT2=
EXTT3=
EXTT4=
EXTT5=
EXTT6=
EXTT7=
EXTT8=
EXTT9=
EXTT10=
EXTT11=
EXTT12=
EXTT13=
PLAYORDER=
